<svg width="83" height="22" viewBox="0 0 83 22" fill="none" xmlns="http://www.w3.org/2000/svg">
<mask id="mask0_1731_2309" style="mask-type:luminance" maskUnits="userSpaceOnUse" x="0" y="0" width="83" height="22">
<path d="M83 0H0V22H83V0Z" fill="white"/>
</mask>
<g mask="url(#mask0_1731_2309)">
<path d="M82.9968 13.9741C82.9968 16.1167 82.9968 18.2633 82.9968 20.4141C82.9968 21.1531 82.9639 21.239 82.2391 21.2574C80.9155 21.2911 79.5918 21.2788 78.2711 21.2574C77.9357 21.2574 77.6871 21.1316 77.6901 20.6655C77.6901 19.4113 77.6093 18.1539 77.6153 16.8997C77.6153 14.382 77.6931 11.8643 77.6931 9.34659C77.6875 8.29334 77.3256 7.27463 76.6689 6.46395C76.3914 6.10558 76.0286 5.82625 75.6154 5.6528C75.2021 5.47934 74.7523 5.41758 74.309 5.47343C73.5949 5.62599 72.9576 6.03496 72.5121 6.62648C72.3288 6.84501 72.1903 7.09909 72.1049 7.37358C72.0195 7.64807 71.9889 7.93735 72.015 8.2242C72.033 12.0912 72.015 15.9613 72.015 19.8283C72.0227 20.1264 71.9873 20.424 71.9102 20.7115C71.7335 21.2972 71.1825 21.239 70.7572 21.2512C69.4036 21.2911 68.0619 21.2696 66.6933 21.2512C66.2082 21.2512 66.0644 21.104 66.0674 20.6072C66.0674 18.8961 66.0674 17.188 66.0674 15.4768C66.0674 13.3363 66.0674 11.1947 66.0674 9.05219C66.118 8.59317 66.1109 8.1294 66.0464 7.67221C65.8946 7.16695 65.6211 6.70891 65.2511 6.34022C64.8811 5.97154 64.4265 5.70405 63.9291 5.56237C63.563 5.451 63.1748 5.43939 62.803 5.52867C62.4311 5.61794 62.0885 5.80502 61.8089 6.07142C61.4117 6.34949 61.0847 6.72032 60.8551 7.1533C60.6255 7.58627 60.4997 8.06896 60.4881 8.56153C60.4881 9.03992 60.4881 9.52138 60.4881 9.99978C60.5121 12.7444 60.5451 15.489 60.56 18.2337C60.56 19.0279 60.5151 19.8222 60.4881 20.6164C60.4959 20.7034 60.4846 20.791 60.455 20.8729C60.4254 20.9548 60.3783 21.0289 60.3171 21.0897C60.256 21.1506 60.1823 21.1967 60.1016 21.2246C60.0208 21.2526 59.9349 21.2617 59.8503 21.2512C58.4487 21.2512 57.0472 21.2512 55.6576 21.2512C55.1036 21.2512 55.0197 21.1378 55.0197 20.5858C55.0197 19.3591 55.0197 18.157 55.0197 16.9426C55.0197 16.4366 54.9298 15.9337 54.9358 15.4308C54.9568 13.1032 54.9568 10.7787 55.0407 8.4542C55.0593 7.09536 55.4148 5.76365 56.0739 4.58411C56.7408 3.30409 57.7108 2.21593 58.8949 1.41935C59.3531 1.13415 59.8772 0.965487 60.2845 0.668024C61.2289 0.119342 62.3233 -0.0961656 63.3991 0.0546982H64.579C65.2109 0.0546982 65.8518 -0.0526338 66.325 0.591358C66.4687 0.787623 66.867 0.77229 67.1036 0.922554C67.6793 1.26889 68.2325 1.65303 68.7597 2.07254C69.0263 2.29334 69.158 2.29334 69.3587 2.05107C69.8732 1.44487 70.5516 1.00841 71.3083 0.796822C71.8756 0.595447 72.4324 0.364117 72.9763 0.103764C73.0791 0.0668041 73.1881 0.051167 73.2968 0.0577648C74.3909 0.0863867 75.4889 0.118075 76.591 0.15283C76.6834 0.150467 76.7753 0.168237 76.8605 0.204963C78.0173 0.659529 79.0937 1.30489 80.047 2.11547C80.6459 2.75027 81.191 3.45559 81.745 4.13945C82.0035 4.40528 82.1652 4.75379 82.2032 5.1269C82.2464 5.43332 82.3707 5.72179 82.5626 5.96103C82.8675 6.40958 83.0201 6.94831 82.9968 7.49434C82.9968 9.6512 82.9968 11.8091 82.9968 13.968" fill="#E6E6E6"/>
<path d="M16.8447 14.4925C16.8447 16.5379 16.8447 18.5833 16.8447 20.6257C16.8447 21.0397 16.7159 21.2114 16.3056 21.19C15.8953 21.1685 15.5509 21.19 15.1736 21.19C14.0895 21.2053 13.0054 21.2298 11.9213 21.2452C11.3223 21.2452 11.1696 21.1164 11.1516 20.5184C11.1306 19.7027 11.1516 18.89 11.1516 18.0651C11.1516 15.1088 11.1516 12.1526 11.1516 9.19638C11.1673 8.64947 11.1006 8.10334 10.9539 7.5772C10.7602 6.94607 10.3724 6.39602 9.84829 6.00914C9.32421 5.62226 8.692 5.4193 8.04603 5.43056C7.67468 5.45816 7.33627 5.81082 6.96192 5.95189C6.75535 6.03598 6.5685 6.16389 6.41366 6.32721C6.25881 6.49053 6.13948 6.68556 6.06349 6.89948C5.95269 7.15094 5.76402 7.36254 5.64123 7.614C5.55439 7.80649 5.50748 8.01533 5.50347 8.22733C5.50347 11.9839 5.50347 15.7375 5.50347 19.4941C5.50029 19.905 5.46726 20.315 5.40464 20.7208C5.40285 20.7798 5.38928 20.8378 5.36476 20.8912C5.34025 20.9446 5.30531 20.9923 5.2621 21.0314C5.21889 21.0705 5.16833 21.1001 5.11353 21.1184C5.05873 21.1367 5.00085 21.1433 4.94345 21.1378C3.51794 21.1378 2.09243 21.1961 0.666922 21.2237C0.0919263 21.2605 -0.00390625 21.1593 -0.00390625 20.5858C-0.00390625 18.5281 0.0350257 16.4674 0.0470048 14.4097C0.0470048 12.7322 0.032031 11.0517 0.0649734 9.37731C0.0454399 8.39324 0.117641 7.40951 0.280597 6.43948C0.598592 5.26964 1.14915 4.17968 1.89777 3.23792C2.57359 2.27424 3.47175 1.49675 4.5122 0.974748C5.4059 0.332119 6.47825 0.0019414 7.56986 0.0332931C8.47022 0.127404 9.3752 0.167338 10.2801 0.152892C10.373 0.152892 10.4898 0.137559 10.5556 0.186625C11.5559 0.941016 12.8916 1.13728 13.7451 2.14313C13.804 2.17561 13.8698 2.19261 13.9367 2.19261C14.0036 2.19261 14.0695 2.17561 14.1284 2.14313C14.5237 1.88554 14.8681 1.53288 15.2694 1.29981C16.048 0.86435 16.8626 0.496354 17.6652 0.100759C17.723 0.0717408 17.7866 0.0570341 17.8509 0.0578262C19.1177 0.0884925 20.3875 0.0578262 21.6483 0.177425C22.0987 0.300463 22.5287 0.49168 22.924 0.744751C24.4405 1.38701 25.7108 2.51869 26.5417 3.96778C27.0542 4.76351 27.4385 5.63844 27.6797 6.55908C27.955 7.52402 28.0305 8.53718 27.9013 9.53371C27.8475 10.0266 27.8415 10.5238 27.8834 11.018C27.8834 11.8644 27.8834 12.7107 27.8834 13.5602C27.9013 14.5599 27.9702 15.5596 27.9672 16.5563C27.9672 17.9731 27.9073 19.3868 27.8834 20.8036C27.8834 21.1286 27.7187 21.2544 27.4192 21.2544C25.9857 21.2544 24.5522 21.2544 23.1187 21.2544C22.5197 21.2544 22.5946 20.7453 22.5048 20.3896C22.4761 20.1513 22.4761 19.9103 22.5048 19.672V8.45119C22.466 7.96606 22.3027 7.50006 22.0313 7.10044C21.7599 6.70083 21.3901 6.38181 20.9595 6.17575C20.7754 6.08593 20.6228 5.94033 20.5222 5.75869C20.4361 5.60763 20.2996 5.49345 20.1379 5.43712C19.9762 5.38079 19.8 5.38608 19.6418 5.45203C19.1224 5.53959 18.6282 5.7429 18.194 6.0476C17.7598 6.3523 17.3963 6.75094 17.1292 7.21534C16.9496 7.55561 16.8472 7.93296 16.8297 8.31933C16.8027 10.3801 16.8297 12.4409 16.8297 14.5017H16.8506" fill="#E6E6E6"/>
<path d="M52.369 11.2829C52.369 11.8963 52.4019 12.5096 52.369 13.1045C52.3407 13.4309 52.2382 13.746 52.0695 14.0245C51.8008 14.4014 51.6438 14.8497 51.6173 15.3156C51.615 15.4251 51.5817 15.5316 51.5215 15.6222C50.821 16.8383 49.9826 17.9655 49.0239 18.9802C47.8025 20.0957 46.3902 20.9701 44.8581 21.5592C43.4576 22.0062 41.9783 22.1329 40.5247 21.9303H40.4289C38.4532 21.9117 36.5462 21.1859 35.0383 19.8787C33.6271 18.8893 32.4843 17.5493 31.7171 15.9841C31.3967 15.2757 31.0972 14.5581 30.8396 13.8374C30.7468 13.5037 30.7073 13.1568 30.7228 12.8101C30.7228 11.6111 30.7049 10.412 30.7228 9.21296C30.7942 8.47231 31.0047 7.75276 31.3427 7.09392C31.8541 5.85592 32.5513 4.7074 33.4091 3.68996C34.3228 2.58527 35.4615 1.69872 36.7453 1.09253C37.5389 0.709201 38.3775 0.424004 39.207 0.120408C39.4169 0.0639071 39.6344 0.0431857 39.8509 0.0590751C40.908 0.0590751 41.9622 0.0590751 43.0164 0.0590751C43.6497 0.0104777 44.281 0.176416 44.8132 0.531336C45.0028 0.629471 45.2042 0.701645 45.4122 0.746C47.08 1.31895 48.552 2.37063 49.6528 3.77583C50.2667 4.59155 50.8327 5.44714 51.3778 6.31193C51.502 6.60769 51.5953 6.91607 51.6562 7.23192C51.9384 7.85952 52.1698 8.50979 52.3481 9.17616C52.4174 9.87523 52.4264 10.5792 52.375 11.2799L52.369 11.2829ZM39.7071 7.32699C40.1005 6.95876 40.4696 6.56435 40.8122 6.14633C40.9527 5.98952 41.0357 5.78768 41.0472 5.57519C41.0587 5.36271 40.9978 5.15273 40.8751 4.98102C40.7697 4.89793 40.6493 4.83701 40.5208 4.80175C40.3923 4.76649 40.2583 4.75758 40.1264 4.77555C39.8864 4.81597 39.6663 4.93676 39.5005 5.11901C39.4074 5.23601 39.2859 5.32592 39.1482 5.37974C39.0105 5.43356 38.8614 5.4494 38.7159 5.42568C38.5876 5.39045 38.4511 5.4055 38.3332 5.4679C38.2152 5.53029 38.1242 5.63552 38.078 5.76301C37.987 5.93696 37.8472 6.07903 37.6767 6.17087C36.9314 6.63827 36.352 7.33794 36.0236 8.16724C35.8469 8.52604 35.6822 8.89097 35.5115 9.25283C35.4369 9.36341 35.3859 9.48878 35.3617 9.62083C35.1574 10.9505 35.3505 12.3124 35.9158 13.5277C36.2965 14.2665 36.749 14.9641 37.2664 15.61C37.8658 16.1077 38.5352 16.5098 39.2519 16.8029C40.0619 17.19 40.9488 17.379 41.8424 17.3549C42.5691 17.2798 43.278 17.0786 43.9387 16.7599C44.9031 16.4112 45.7332 15.7557 46.3076 14.8893C46.6969 14.3557 46.8586 13.6626 47.233 13.1076C47.731 12.123 47.8993 10.9981 47.7121 9.90602C47.681 9.6929 47.5976 9.49136 47.4696 9.3203C47.1891 8.97809 47.0457 8.53978 47.0683 8.09365C47.0675 8.04814 47.0578 8.00325 47.0398 7.96164C47.0218 7.92003 46.9958 7.88254 46.9634 7.85138C46.2477 7.11539 45.532 6.3794 44.8042 5.65567C44.599 5.50673 44.3575 5.41874 44.1065 5.40142C43.8555 5.38411 43.6046 5.43813 43.3817 5.55754C42.9327 6.02144 42.4458 6.44515 41.9262 6.82406C41.633 7.10148 41.2723 7.2931 40.8819 7.37888C40.4915 7.46466 40.0858 7.44144 39.7071 7.31165" fill="#E6E6E6"/>
<path d="M41.4466 12.3867C41.9707 12.4327 42.4978 12.4572 43.0189 12.5308C43.3902 12.583 43.4351 12.7762 43.2465 13.1135C43.1154 13.371 42.9994 13.6362 42.8991 13.9078C42.6954 14.4107 42.2163 14.4506 41.8 14.5211C41.319 14.5663 40.8377 14.4377 40.4395 14.1576C40.0413 13.8776 39.7513 13.4637 39.6198 12.9878C39.536 12.5339 39.9762 12.4849 40.2637 12.4389C40.6555 12.4097 41.0488 12.4097 41.4406 12.4389C41.4406 12.4389 41.4406 12.4082 41.4406 12.3928" fill="#E6E6E6"/>
<path d="M43.6723 10.5978C43.6859 10.3816 43.7735 10.1772 43.9198 10.0207C44.0661 9.8642 44.2616 9.76557 44.4719 9.74219C44.7714 9.74219 45.2925 10.3555 45.2775 10.702C45.2626 11.0486 44.7535 11.5668 44.4719 11.5668C44.2427 11.542 44.0315 11.4279 43.8821 11.2481C43.7327 11.0683 43.6566 10.8366 43.6694 10.6008" fill="#E6E6E6"/>
<path d="M38.6671 9.65457L39.4188 10.6359L38.3916 11.5559C38.1196 11.2358 37.8685 10.8978 37.6399 10.5439C37.5501 10.3875 38.3377 9.71897 38.6671 9.64844" fill="#E6E6E6"/>
</g>
</svg>
