<svg width="13" height="24" viewBox="0 0 13 24" fill="none" xmlns="http://www.w3.org/2000/svg">
<path d="M12.1465 13.4998L12.8211 9.15628H8.60593V6.33036C8.57778 6.00653 8.62349 5.68058 8.73968 5.37654C8.85588 5.0725 9.03961 4.79813 9.27732 4.57366C9.51503 4.34919 9.80065 4.18034 10.1131 4.07957C10.4256 3.97879 10.757 3.94866 11.0828 3.99139H13V0.293843C11.8745 0.114042 10.7373 0.0158498 9.59735 5.17648e-05C8.81325 -0.0597009 8.02546 0.05182 7.2898 0.326711C6.55415 0.601602 5.88864 1.03313 5.34044 1.59072C4.79224 2.14831 4.37477 2.81831 4.11761 3.55324C3.86046 4.28817 3.76992 5.07003 3.8524 5.84342V9.15466H0V13.4998H3.85896V24H8.60593V13.4998H12.1465Z" fill="#E6E6E6"/>
</svg>
