<svg width="25" height="25" viewBox="0 0 25 25" fill="none" xmlns="http://www.w3.org/2000/svg">
<mask id="mask0_1731_2289" style="mask-type:luminance" maskUnits="userSpaceOnUse" x="0" y="0" width="25" height="25">
<path d="M24.9128 0H0V24.9111H24.9128V0Z" fill="white"/>
</mask>
<g mask="url(#mask0_1731_2289)">
<path d="M17.237 0H7.67582C5.64036 -4.88587e-08 3.68824 0.808469 2.24879 2.2476C0.809343 3.68673 0.000445982 5.63867 0 7.67414L0 17.2353C0.000445982 19.2707 0.809343 21.2227 2.24879 22.6618C3.68824 24.1009 5.64036 24.9094 7.67582 24.9094H17.237C18.2449 24.9096 19.243 24.7113 20.1742 24.3257C21.1055 23.9402 21.9517 23.3749 22.6645 22.6623C23.3773 21.9497 23.9427 21.1036 24.3285 20.1724C24.7142 19.2412 24.9128 18.2432 24.9128 17.2353V7.67414C24.9123 5.63867 24.1034 3.68673 22.664 2.2476C21.2245 0.808469 19.2724 -4.88587e-08 17.237 0ZM22.5212 16.3136C22.5217 17.1289 22.3614 17.9362 22.0496 18.6894C21.7377 19.4427 21.2805 20.1271 20.704 20.7035C20.1274 21.2798 19.4429 21.7369 18.6896 22.0485C17.9362 22.3602 17.1289 22.5202 16.3136 22.5195H8.59241C7.7776 22.5195 6.97077 22.359 6.21802 22.0471C5.46527 21.7352 4.78136 21.278 4.20536 20.7017C3.62935 20.1254 3.17255 19.4412 2.86104 18.6883C2.54953 17.9354 2.38942 17.1284 2.38986 16.3136V8.59073C2.39031 6.946 3.04399 5.36879 4.20714 4.20595C5.3703 3.04311 6.94768 2.38986 8.59241 2.38986H16.3136C17.9582 2.39076 19.5352 3.04458 20.6979 4.20763C21.8607 5.37069 22.5141 6.94782 22.5145 8.59241L22.5212 16.3136Z" fill="#E6E6E6"/>
<path d="M12.7896 5.9375C11.4923 5.9375 10.2242 6.32218 9.14552 7.04291C8.06689 7.76363 7.22619 8.78802 6.72975 9.98654C6.23331 11.1851 6.10342 12.5039 6.3565 13.7762C6.60959 15.0485 7.23428 16.2173 8.15158 17.1346C9.06889 18.0519 10.2376 18.6766 11.5099 18.9297C12.7823 19.1827 14.1011 19.0528 15.2996 18.5564C16.4981 18.06 17.5225 17.2193 18.2432 16.1406C18.964 15.062 19.3487 13.7939 19.3487 12.4966C19.3487 10.757 18.6576 9.08868 17.4275 7.85861C16.1975 6.62855 14.5291 5.9375 12.7896 5.9375ZM12.7896 16.4472C12.0089 16.4472 11.2457 16.2157 10.5966 15.782C9.94748 15.3482 9.44155 14.7318 9.1428 14.0105C8.84404 13.2892 8.76587 12.4956 8.91818 11.7299C9.07048 10.9642 9.44642 10.2609 9.99845 9.70884C10.5505 9.15681 11.2538 8.78088 12.0195 8.62857C12.7852 8.47627 13.5788 8.55444 14.3001 8.8532C15.0214 9.15195 15.6378 9.65788 16.0716 10.307C16.5053 10.9561 16.7368 11.7193 16.7368 12.5C16.7368 13.5468 16.3209 14.5508 15.5807 15.2911C14.8404 16.0313 13.8364 16.4472 12.7896 16.4472Z" fill="#E6E6E6"/>
<path d="M20.5711 5.83411C20.5708 6.16394 20.4727 6.48627 20.2892 6.76037C20.1058 7.03447 19.8452 7.24805 19.5404 7.37411C19.2356 7.50018 18.9003 7.53308 18.5768 7.46865C18.2534 7.40422 17.9562 7.24536 17.723 7.01214C17.4898 6.77892 17.3309 6.4818 17.2665 6.15832C17.2021 5.83485 17.235 5.49954 17.3611 5.19475C17.4871 4.88997 17.7007 4.62938 17.9748 4.44593C18.2489 4.26248 18.5712 4.1644 18.9011 4.16406C19.344 4.16406 19.7688 4.34001 20.082 4.65321C20.3952 4.9664 20.5711 5.39118 20.5711 5.83411Z" fill="#E6E6E6"/>
</g>
</svg>
