<svg id="footer-ico-mom.svg" xmlns="http://www.w3.org/2000/svg" xmlns:xlink="http://www.w3.org/1999/xlink" width="27.715" height="7.174" viewBox="0 0 27.715 7.174">
  <defs>
    <clipPath id="clip-path">
      <rect id="사각형_29708" data-name="사각형 29708" width="27.715" height="7.174" transform="translate(0 0)" fill="#afafbc"/>
    </clipPath>
  </defs>
  <g id="그룹_83151" data-name="그룹 83151" transform="translate(0 0)" clip-path="url(#clip-path)">
    <path id="패스_85080" data-name="패스 85080" d="M154.02,4.667q0,1.048,0,2.1c0,.241-.011.269-.253.275-.442.011-.884.007-1.325,0-.112,0-.195-.041-.194-.193,0-.409-.027-.819-.025-1.228,0-.821.026-1.642.026-2.463a1.485,1.485,0,0,0-.342-.94.87.87,0,0,0-.788-.323,1.021,1.021,0,0,0-.6.376.7.7,0,0,0-.166.521c.006,1.261,0,2.523,0,3.784a.989.989,0,0,1-.035.288c-.059.191-.243.172-.385.176-.452.013-.9.006-1.357,0-.162,0-.21-.048-.209-.21,0-.558,0-1.115,0-1.673q0-1.047,0-2.095a1.764,1.764,0,0,0-.007-.45,1.028,1.028,0,0,0-.707-.688.733.733,0,0,0-.708.166,1.013,1.013,0,0,0-.441.812c0,.156,0,.313,0,.469.008.895.019,1.79.024,2.685,0,.259-.015.518-.024.777a.191.191,0,0,1-.213.207c-.468,0-.936,0-1.4,0-.185,0-.213-.037-.213-.217,0-.4,0-.792,0-1.188,0-.165-.03-.329-.028-.493.007-.759.007-1.517.035-2.275a2.615,2.615,0,0,1,.345-1.262,2.827,2.827,0,0,1,.942-1.032c.153-.093.328-.148.464-.245a1.653,1.653,0,0,1,1.04-.2h.394c.211,0,.425-.035.583.175.048.064.181.059.26.108a5.167,5.167,0,0,1,.553.375c.089.072.133.072.2-.007a1.325,1.325,0,0,1,.651-.409,5.807,5.807,0,0,0,.557-.226.274.274,0,0,1,.107-.015q.548.014,1.1.031a.218.218,0,0,1,.09.017A3.792,3.792,0,0,1,153.035.8c.2.207.382.437.567.66a.535.535,0,0,1,.153.322.553.553,0,0,0,.12.272.813.813,0,0,1,.145.5q0,1.055,0,2.111" transform="translate(-126.306 -0.11)" fill="#afafbc"/>
    <path id="패스_85081" data-name="패스 85081" d="M5.626,4.726c0,.667,0,1.334,0,2,0,.135-.043.191-.18.184s-.252,0-.378,0c-.362.005-.724.013-1.086.018-.2,0-.251-.042-.257-.237-.007-.266,0-.531,0-.8,0-.964,0-1.928,0-2.892a1.738,1.738,0,0,0-.066-.528,1,1,0,0,0-.971-.7c-.124.009-.237.124-.362.17a.526.526,0,0,0-.3.309c-.037.082-.1.151-.141.233a.5.5,0,0,0-.046.2c0,1.225,0,2.449,0,3.674a2.7,2.7,0,0,1-.033.4.141.141,0,0,1-.154.136c-.476,0-.952.019-1.428.028C.032,6.933,0,6.9,0,6.713c0-.671.013-1.343.017-2.014,0-.547-.005-1.095.006-1.641A5.046,5.046,0,0,1,.095,2.1a2.875,2.875,0,0,1,.54-1.044A2.345,2.345,0,0,1,1.508.318,1.694,1.694,0,0,1,2.529.011a7.726,7.726,0,0,0,.905.039c.031,0,.07-.005.092.011.334.246.78.31,1.065.638a.135.135,0,0,0,.128,0C4.851.615,4.966.5,5.1.424c.26-.142.532-.262.8-.391A.137.137,0,0,1,5.962.019c.423.01.847,0,1.268.039a1.564,1.564,0,0,1,.426.185A2.516,2.516,0,0,1,8.864,1.294a2.9,2.9,0,0,1,.38.845,2.355,2.355,0,0,1,.074.97,2.45,2.45,0,0,0-.006.484c0,.276,0,.552,0,.829.006.326.029.652.028.977,0,.462-.02.923-.028,1.385,0,.106-.055.147-.155.147q-.718,0-1.436,0c-.2,0-.175-.166-.205-.282a.957.957,0,0,1,0-.234V2.756A.9.9,0,0,0,7,2.014a.332.332,0,0,1-.146-.136.237.237,0,0,0-.294-.1,1.2,1.2,0,0,0-.839.575.839.839,0,0,0-.1.36c-.009.672,0,1.344,0,2.016h.007" transform="translate(-0.001 0)" fill="#afafbc"/>
    <path id="패스_85082" data-name="패스 85082" d="M88.117,3.8c0,.2.011.4,0,.594a.684.684,0,0,1-.1.3.792.792,0,0,0-.151.421.185.185,0,0,1-.032.1A5.847,5.847,0,0,1,87,6.31a4.429,4.429,0,0,1-1.391.841,3.346,3.346,0,0,1-1.447.121h-.032a2.826,2.826,0,0,1-1.8-.669,3.373,3.373,0,0,1-1.109-1.27c-.107-.231-.207-.465-.293-.7a1.048,1.048,0,0,1-.039-.335c0-.391-.006-.782,0-1.173a1.883,1.883,0,0,1,.207-.691,4.205,4.205,0,0,1,.69-1.11A3.235,3.235,0,0,1,82.9.477c.265-.125.545-.218.822-.317a.66.66,0,0,1,.215-.02c.353,0,.705,0,1.057,0a.967.967,0,0,1,.6.154.809.809,0,0,0,.2.07,3.065,3.065,0,0,1,1.416.988c.205.266.394.545.576.827a1.49,1.49,0,0,1,.093.3,4.116,4.116,0,0,1,.231.634,3.9,3.9,0,0,1,.009.686Zm-4.228-1.29a4.044,4.044,0,0,0,.369-.385.3.3,0,0,0,.021-.38.337.337,0,0,0-.25-.067.367.367,0,0,0-.209.112.281.281,0,0,1-.262.1A.178.178,0,0,0,83.345,2a.322.322,0,0,1-.134.133,1.365,1.365,0,0,0-.552.651c-.059.117-.114.236-.171.354a.313.313,0,0,0-.05.12,2.176,2.176,0,0,0,.185,1.274,4.054,4.054,0,0,0,.451.679,2.56,2.56,0,0,0,.663.389,1.925,1.925,0,0,0,.865.18,2.149,2.149,0,0,0,.7-.194,1.6,1.6,0,0,0,.791-.61c.13-.174.184-.4.309-.581a1.65,1.65,0,0,0,.16-1.044.415.415,0,0,0-.081-.191.576.576,0,0,1-.134-.4.111.111,0,0,0-.035-.079c-.239-.24-.478-.48-.721-.716a.456.456,0,0,0-.475-.032,3.735,3.735,0,0,1-.486.413.744.744,0,0,1-.741.159" transform="translate(-70.63 -0.121)" fill="#afafbc"/>
    <path id="패스_85083" data-name="패스 85083" d="M104.925,31.853c.175.015.351.023.525.047.124.017.139.08.076.19a2.391,2.391,0,0,0-.116.259c-.068.164-.228.177-.367.2a.691.691,0,0,1-.728-.5c-.028-.148.119-.164.215-.179a2.707,2.707,0,0,1,.393,0s0-.01,0-.015" transform="translate(-91.085 -27.814)" fill="#afafbc"/>
    <path id="패스_85084" data-name="패스 85084" d="M115.009,25.333a.3.3,0,0,1,.267-.279c.1,0,.274.2.269.313s-.175.282-.269.282a.3.3,0,0,1-.268-.315" transform="translate(-100.426 -21.877)" fill="#afafbc"/>
    <path id="패스_85085" data-name="패스 85085" d="M99.446,24.831l.251.32-.343.3a3.149,3.149,0,0,1-.251-.33c-.03-.051.233-.269.343-.292" transform="translate(-86.534 -21.682)" fill="#afafbc"/>
  </g>
</svg>
