<?xml version="1.0" encoding="UTF-8"?>
<svg id="Layer_2" data-name="Layer 2" xmlns="http://www.w3.org/2000/svg" viewBox="0 0 287 95.92">
  <defs>
    <style>
      .cls-1 {
        fill: #cdcc34;
      }

      .cls-2 {
        fill: #fff;
      }

      .cls-3 {
        fill: #f90;
      }
    </style>
  </defs>
  <g id="Layer_2-2" data-name="Layer 2">
    <g>
      <g>
        <path class="cls-2" d="M7.57,86.46c-.98-.14-1.96-.47-2.94-1-.98-.53-1.84-1.21-2.57-2.05-.74-.84-1.3-1.8-1.68-2.89-.39-1.08-.47-2.26-.26-3.52.21-1.26.63-2.36,1.26-3.31s1.4-1.73,2.31-2.36c.91-.63,1.89-1.09,2.94-1.37,1.05-.28,2.03-.35,2.94-.21,2.66.28,5.78.51,9.35.68,3.57.18,7.46.33,11.66.47v-12.29c0-1.82.89-3.38,2.68-4.68,1.79-1.3,3.77-1.94,5.94-1.94,1.05,0,2.1.16,3.15.47,1.05.32,2.01.75,2.89,1.31.88.56,1.59,1.26,2.15,2.1.56.84.84,1.75.84,2.73v12.5c6.16-.07,12.01-.21,17.55-.42,5.53-.21,10.16-.53,13.87-.95,1.05-.14,2.14-.07,3.26.21,1.12.28,2.14.74,3.05,1.37.91.63,1.66,1.45,2.26,2.47.59,1.02.93,2.19,1,3.52.07,1.33-.1,2.54-.53,3.62s-1,2.01-1.73,2.78c-.74.77-1.56,1.38-2.47,1.84-.91.46-1.82.75-2.73.89-2.1.28-5.04.51-8.83.68-3.78.17-8.02.32-12.71.42-4.69.1-9.63.17-14.82.21-5.19.03-10.18.02-14.97-.05-4.8-.07-9.21-.21-13.24-.42-4.03-.21-7.23-.49-9.61-.84ZM15.45,47.69c-.84,0-1.68-.19-2.52-.58-.84-.38-1.58-.95-2.21-1.68-.63-.74-1.12-1.61-1.47-2.63-.35-1.01-.53-2.15-.53-3.42,0-1.12.19-2.19.58-3.21.38-1.01.91-1.89,1.58-2.63.67-.74,1.4-1.31,2.21-1.73.8-.42,1.59-.63,2.36-.63h34.89c.84,0,1.66.19,2.47.58.8.39,1.54.93,2.21,1.63.67.7,1.22,1.56,1.68,2.57.46,1.02.68,2.15.68,3.42-.07,2.1-.74,4.01-2,5.73-1.26,1.72-2.94,2.57-5.04,2.57H15.45ZM76.19,57.14c-.56,2.1-1.82,3.71-3.78,4.83-1.96,1.12-4.03,1.44-6.2.95-2.31-.56-4.15-1.65-5.52-3.26-1.37-1.61-1.88-3.5-1.52-5.67.56-3.99,1.01-8.44,1.37-13.35.35-4.9.46-9.6.32-14.08,0-.56-.16-1.19-.47-1.89-.32-.7-1.28-1.05-2.89-1.05H15.77c-1.05,0-1.98-.26-2.78-.79-.81-.53-1.49-1.19-2.05-2-.56-.8-1-1.7-1.31-2.68-.32-.98-.47-1.93-.47-2.84,0-1.05.21-2.07.63-3.05.42-.98.95-1.85,1.58-2.63.63-.77,1.35-1.4,2.15-1.89.8-.49,1.56-.74,2.26-.74h52.96c.7,0,1.52.14,2.47.42.95.28,1.86.74,2.73,1.37.88.63,1.65,1.4,2.31,2.31.67.91,1.1,2,1.31,3.26.21,1.54.38,3.47.53,5.78.14,2.31.23,4.8.26,7.46.03,2.66.02,5.41-.05,8.25-.07,2.84-.19,5.59-.37,8.25-.18,2.66-.42,5.11-.74,7.36-.32,2.24-.65,4.13-1,5.67Z"/>
        <path class="cls-2" d="M106.45,86.46c-.98-.14-1.96-.47-2.94-1-.98-.53-1.84-1.21-2.57-2.05-.74-.84-1.3-1.8-1.68-2.89-.39-1.08-.47-2.26-.26-3.52.21-1.26.63-2.36,1.26-3.31s1.4-1.73,2.31-2.36c.91-.63,1.89-1.09,2.94-1.37,1.05-.28,2.03-.35,2.94-.21,2.66.28,5.78.51,9.35.68,3.57.18,7.46.33,11.66.47v-12.29c0-1.82.89-3.38,2.68-4.68,1.79-1.3,3.77-1.94,5.94-1.94,1.05,0,2.1.16,3.15.47,1.05.32,2.01.75,2.89,1.31.88.56,1.59,1.26,2.15,2.1.56.84.84,1.75.84,2.73v12.5c6.16-.07,12.01-.21,17.55-.42,5.53-.21,10.16-.53,13.87-.95,1.05-.14,2.14-.07,3.26.21,1.12.28,2.14.74,3.05,1.37.91.63,1.66,1.45,2.26,2.47.59,1.02.93,2.19,1,3.52.07,1.33-.1,2.54-.53,3.62s-1,2.01-1.73,2.78c-.74.77-1.56,1.38-2.47,1.84-.91.46-1.82.75-2.73.89-2.1.28-5.04.51-8.83.68-3.78.17-8.02.32-12.71.42-4.69.1-9.63.17-14.82.21-5.19.03-10.18.02-14.97-.05-4.8-.07-9.21-.21-13.24-.42-4.03-.21-7.23-.49-9.61-.84ZM114.33,47.69c-.84,0-1.68-.19-2.52-.58-.84-.38-1.58-.95-2.21-1.68-.63-.74-1.12-1.61-1.47-2.63-.35-1.01-.53-2.15-.53-3.42,0-1.12.19-2.19.58-3.21.38-1.01.91-1.89,1.58-2.63.67-.74,1.4-1.31,2.21-1.73.8-.42,1.59-.63,2.36-.63h34.89c.84,0,1.66.19,2.47.58.8.39,1.54.93,2.21,1.63.67.7,1.22,1.56,1.68,2.57.46,1.02.68,2.15.68,3.42-.07,2.1-.74,4.01-2,5.73-1.26,1.72-2.94,2.57-5.04,2.57h-34.89ZM175.07,57.14c-.56,2.1-1.82,3.71-3.78,4.83-1.96,1.12-4.03,1.44-6.2.95-2.31-.56-4.15-1.65-5.52-3.26-1.37-1.61-1.88-3.5-1.52-5.67.56-3.99,1.01-8.44,1.37-13.35.35-4.9.46-9.6.32-14.08,0-.56-.16-1.19-.47-1.89-.32-.7-1.28-1.05-2.89-1.05h-41.72c-1.05,0-1.98-.26-2.78-.79-.81-.53-1.49-1.19-2.05-2-.56-.8-1-1.7-1.31-2.68-.32-.98-.47-1.93-.47-2.84,0-1.05.21-2.07.63-3.05.42-.98.95-1.85,1.58-2.63.63-.77,1.35-1.4,2.15-1.89.8-.49,1.56-.74,2.26-.74h52.96c.7,0,1.52.14,2.47.42.95.28,1.86.74,2.73,1.37.88.63,1.65,1.4,2.31,2.31.67.91,1.1,2,1.31,3.26.21,1.54.38,3.47.53,5.78.14,2.31.23,4.8.26,7.46.03,2.66.02,5.41-.05,8.25-.07,2.84-.19,5.59-.37,8.25-.18,2.66-.42,5.11-.74,7.36-.32,2.24-.65,4.13-1,5.67Z"/>
        <path class="cls-2" d="M205.33,49.79c-.98-.14-1.94-.38-2.89-.74-.95-.35-1.79-.84-2.52-1.47-.74-.63-1.3-1.44-1.68-2.42-.39-.98-.51-2.17-.37-3.57.14-1.19.47-2.17,1-2.94.53-.77,1.19-1.38,2-1.84.8-.45,1.68-.77,2.63-.95.95-.17,1.87-.23,2.78-.16,2.73.28,6.02.51,9.88.68,3.85.18,7.99.32,12.4.42,4.41.1,8.95.18,13.61.21,4.66.04,9.19,0,13.61-.11,4.41-.1,8.53-.26,12.35-.47,3.82-.21,7.06-.45,9.72-.74,2.24-.28,4.29,0,6.15.84,1.86.84,2.85,2.63,3,5.36.07,1.26-.09,2.36-.47,3.31-.39.95-.93,1.73-1.63,2.36-.7.63-1.49,1.12-2.36,1.47-.88.35-1.77.6-2.68.74-2.1.21-5.06.42-8.88.63-3.82.21-8.08.35-12.77.42-4.69.07-9.63.12-14.82.16-5.19.04-10.19,0-15.03-.1-4.83-.1-9.28-.24-13.35-.42-4.06-.17-7.29-.4-9.67-.68ZM222.46,82.15c0,.49.35.77,1.05.84,1.26.21,2.77.38,4.52.53,1.75.14,3.61.26,5.57.37,1.96.1,3.94.17,5.94.21,2,.03,3.87.05,5.62.05,4.34,0,8.97-.18,13.87-.53,4.9-.35,9.32-.91,13.24-1.68,1.61-.35,3.22-.28,4.83.21,1.61.49,2.7,1.72,3.26,3.68.49,1.68.17,3.17-.95,4.47-1.12,1.3-2.38,2.15-3.78,2.57-2.1.63-4.45,1.14-7.04,1.52-2.59.38-5.27.7-8.04.95-2.77.25-5.53.4-8.3.47-2.77.07-5.38.1-7.83.1s-5.01-.04-7.88-.1c-2.87-.07-5.73-.19-8.56-.37-2.84-.18-5.48-.42-7.93-.74-2.45-.31-4.48-.75-6.09-1.31-1.54-.56-3.15-1.49-4.83-2.78-1.68-1.3-2.77-2.96-3.26-4.99-.56-2.24-.72-4.41-.47-6.52.24-2.1.44-3.61.58-4.52.21-1.05.59-1.96,1.16-2.73.56-.77,1.17-1.4,1.84-1.89.67-.49,1.37-.84,2.1-1.05.74-.21,1.38-.32,1.94-.32h48.65v-1.89c0-.56-.32-.84-.95-.84h-47.71c-1.47,0-2.85-.56-4.15-1.68-1.3-1.12-1.94-2.56-1.94-4.31,0-1.54.61-2.89,1.84-4.05,1.23-1.16,2.64-1.73,4.26-1.73h56.53c2.45,0,4.47.63,6.04,1.89,1.58,1.26,2.5,2.8,2.78,4.62.42,2.66.58,5.11.47,7.36-.1,2.24-.33,4.2-.68,5.88-.42,2.03-1.42,3.62-2.99,4.78-1.58,1.16-3.17,1.73-4.78,1.73h-47.92v1.79ZM242.43,22.15c2.73,0,5.43-.09,8.09-.26,2.66-.17,4.97-.4,6.94-.68,1.96-.42,3.05-1.68,3.26-3.78.07-.98.09-1.86.05-2.63-.04-.77-.09-1.49-.16-2.15-.07-.67-.18-1.31-.32-1.94-.14-.63-.28-1.3-.42-2-.21-1.05-.14-2.08.21-3.1.35-1.01.89-1.91,1.63-2.68.74-.77,1.61-1.42,2.63-1.94,1.01-.53,2.08-.82,3.21-.89,2.24-.21,4.34.19,6.3,1.21,1.96,1.02,3.15,2.61,3.57,4.78.35,1.68.58,3.94.68,6.78.1,2.84-.12,5.9-.68,9.19-.35,2.24-1.33,4.13-2.94,5.67-1.61,1.54-3.43,2.7-5.46,3.47-1.26.49-2.87.95-4.83,1.37-1.96.42-4.13.77-6.52,1.05-2.38.28-4.87.51-7.46.68-2.59.18-5.19.26-7.78.26s-5.08-.09-7.67-.26c-2.59-.17-5.08-.4-7.46-.68-2.38-.28-4.57-.63-6.57-1.05-2-.42-3.66-.88-4.99-1.37-1.96-.77-3.75-1.93-5.36-3.47-1.61-1.54-2.59-3.43-2.94-5.67-.35-2.31-.56-4.76-.63-7.36-.07-2.59.14-5.46.63-8.62.14-1.05.54-1.98,1.21-2.78.67-.8,1.47-1.47,2.42-2s1.96-.89,3.05-1.1c1.09-.21,2.12-.24,3.1-.11,1.82.28,3.48.98,4.99,2.1,1.51,1.12,2.43,2.49,2.78,4.1h23.85c1.68,0,3.22.44,4.62,1.31,1.4.88,2.1,2.4,2.1,4.57,0,1.82-.58,3.29-1.73,4.41-1.16,1.12-2.82,1.68-4.99,1.68h-24.8c0,1.54.84,2.49,2.52,2.84,1.96.35,4.36.61,7.2.79,2.84.18,5.73.26,8.67.26Z"/>
      </g>
      <g>
        <path class="cls-1" d="M89.34,77.32c-.07-1.33-.4-2.5-1-3.52-.6-1.02-1.35-1.84-2.26-2.47-.91-.63-1.93-1.09-3.05-1.37-1.12-.28-2.21-.35-3.26-.21-2.36.27-5.09.49-8.18.67v16.78c.49-.02.99-.04,1.46-.06,3.78-.18,6.73-.4,8.83-.68.91-.14,1.82-.44,2.73-.89.91-.46,1.73-1.07,2.47-1.84.74-.77,1.31-1.7,1.73-2.78.42-1.09.59-2.29.53-3.63Z"/>
        <path class="cls-3" d="M188.23,77.32c-.07-1.33-.4-2.5-1-3.52-.6-1.02-1.35-1.84-2.26-2.47-.91-.63-1.93-1.09-3.05-1.37-1.12-.28-2.21-.35-3.26-.21-3.05.34-6.72.62-10.99.82v16.74c1.47-.05,2.91-.11,4.26-.17,3.78-.18,6.73-.4,8.83-.68.91-.14,1.82-.44,2.73-.89.91-.46,1.73-1.07,2.47-1.84.74-.77,1.31-1.7,1.73-2.78.42-1.09.59-2.29.53-3.63Z"/>
      </g>
    </g>
  </g>
</svg>