<?xml version="1.0" encoding="UTF-8"?>
<svg id="Layer_2" data-name="Layer 2" xmlns="http://www.w3.org/2000/svg" viewBox="0 0 622.87 128.15">
  <defs>
    <style>
      .cls-1 {
        fill: #fff;
      }

      .cls-2 {
        fill: #e60013;
      }
    </style>
  </defs>
  <g id="Layer_1-2" data-name="Layer 1">
    <g>
      <g>
        <polygon points="23.84 19.06 23.84 11.17 2.34 11.17 2.34 19.06 8.4 19.06 0 47.61 8.32 47.67 13.03 32.12 17.75 47.67 26.07 47.61 17.67 19.06 23.84 19.06"/>
        <polygon points="38.16 10.31 38.16 24.42 34.24 24.42 34.24 9.93 26.35 9.93 26.35 64.84 34.24 64.84 34.24 32.31 38.16 32.31 38.16 65.22 46.05 65.22 46.05 10.31 38.16 10.31"/>
      </g>
      <g>
        <polygon points="69.54 27.3 101.41 27.3 101.41 19.38 69.54 19.38 69.54 10.04 61.43 10.04 61.43 27.3 68.05 27.3 69.54 27.3"/>
        <path d="M104.52,32.58h-46.34v7.8h9.28c-2.35,2.99-3.75,6.76-3.75,10.86,0,9.74,7.9,17.64,17.64,17.64s17.64-7.9,17.64-17.64c0-4.1-1.4-7.87-3.75-10.86h9.28v-7.8ZM81.35,60.59c-5.17,0-9.35-4.19-9.35-9.35s4.19-9.35,9.35-9.35,9.35,4.19,9.35,9.35-4.19,9.35-9.35,9.35Z"/>
      </g>
      <g>
        <path d="M549.44,58.9h17.36V7.41h-17.36v12.75h-53.65V7.41h-17.36v51.49h71.01ZM495.78,33.43h53.65v8.52h-53.65v-8.52Z"/>
        <polygon points="571.33 80.81 571.33 63.69 473.42 63.69 473.42 80.81 513.36 80.81 513.36 89.68 477.95 89.68 477.95 106.35 549.71 106.35 549.71 124.84 566.8 124.84 566.8 106.35 566.8 101.78 566.8 89.68 531.76 89.68 531.76 80.81 571.33 80.81"/>
      </g>
      <g>
        <path class="cls-2" d="M109.07,107.05c0,11.63,9.47,21.1,21.11,21.1h301.25c11.64,0,21.1-9.47,21.1-21.1V22.83c0-11.63-9.46-21.1-21.1-21.1h-71.2c-11.64,0-21.1,9.47-21.1,21.1v43.58l-31.09-52.55c-5.06-8.54-14.56-13.85-24.81-13.85s-19.75,5.31-24.81,13.85l-30.38,51.33-30.37-51.33c-5.05-8.54-14.56-13.85-24.8-13.85s-19.75,5.31-24.81,13.85l-36.41,61.54c-1.3,2.31-2.11,5.04-2.4,8.18-.02.2-.05.37-.07.57l-.1,1.79v21.12Z"/>
        <g>
          <path class="cls-1" d="M130.17,112.05c-2.76,0-5-2.24-5-5v-12.4h95.35v17.4h-90.36Z"/>
          <path class="cls-1" d="M240.53,112.05c-2.76,0-5-2.24-5-5v-12.4h95.36v17.4h-90.36Z"/>
          <path class="cls-1" d="M294.16,22.06c-2.12-3.59-6.35-5.95-10.94-5.95s-8.82,2.36-10.95,5.95c-2.22,3.76-36.73,62.08-36.73,62.08h21.2l26.49-47.15h0l26.48,47.15h21.2l-36.73-62.08Z"/>
          <path class="cls-1" d="M183.79,22.06c-2.12-3.59-6.36-5.95-10.94-5.95s-8.82,2.36-10.95,5.95c-1.45,2.44-16.58,28.02-26.97,45.57h-18.71l-4.59,7.75h0c-1.3,2.31-2.11,5.05-2.4,8.19-.02.2-.05.37-.07.57h33.37c2.44,0,4.57-1.36,5.7-3.33l24.62-43.83,26.48,47.15h21.19l-36.74-62.07Z"/>
          <path class="cls-1" d="M405.3,84.14h31.11v-16.51h-62.23v-8.59h62.23V22.82c0-2.75-2.24-4.99-4.99-4.99h-76.2v16.5h62.23v8.21h-62.23v36.6c0,2.75,2.24,4.99,5,4.99h26.11v10.52h-40.6v12.4c0,2.76,2.24,5,5,5h101.2c.39-1.61.6-3.28.6-5v-12.4h-47.22v-10.52Z"/>
        </g>
      </g>
      <polygon points="589.01 9.56 595.03 9.56 595.03 25.33 597.49 25.33 597.49 9.56 603.53 9.56 603.53 7.41 589.01 7.41 589.01 9.56"/>
      <polygon points="622.87 25.33 622.87 7.41 619.44 7.41 614.3 22.57 609.15 7.41 605.69 7.41 605.69 25.33 608.02 25.33 608.02 10.43 613.08 25.33 615.52 25.33 620.56 10.37 620.56 25.33 622.87 25.33"/>
    </g>
  </g>
</svg>